<svg width="256px" height="256px" viewBox="0 0 16 16" version="1.1" xmlns="http://www.w3.org/2000/svg" aria-hidden="true" role="img" focusable="false" preserveAspectRatio="xMidYMid meet"><rect fill="#000000" fill-rule="nonzero" x="0" y="0" width="16" height="16" rx="3"></rect><path d="M6.28571429,5.5 C6.28571429,4.11929 7.56491429,3 9.14285714,3 C10.7208,3 12,4.11929 12,5.5 L12,9.5 C12,11.433 10.2091429,13 8,13 C5.79086286,13 4,11.433 4,9.5 L4,6.5 C4,6.22386 4.25584,6 4.57142857,6 C4.88701714,6 5.14285714,6.22386 5.14285714,6.5 L5.14285714,9.5 C5.14285714,10.8807 6.42204571,12 8,12 C9.57794286,12 10.8571429,10.8807 10.8571429,9.5 L10.8571429,5.5 C10.8571429,4.671575 10.0896571,4 9.14285714,4 C8.19605714,4 7.42857143,4.671575 7.42857143,5.5 L7.42857143,9.5 C7.42857143,9.77615 7.6844,10 8,10 C8.3156,10 8.57142857,9.77615 8.57142857,9.5 L8.57142857,6.5 C8.57142857,6.22386 8.82725714,6 9.14285714,6 C9.45845714,6 9.71428571,6.22386 9.71428571,6.5 L9.71428571,9.5 C9.71428571,10.32845 8.9468,11 8,11 C7.0532,11 6.28571429,10.32845 6.28571429,9.5 L6.28571429,5.5 Z" fill="#FFFFFF"></path></svg>